<?xml version="1.0" standalone="no"?>
<!DOCTYPE svg PUBLIC "-//W3C//DTD SVG 20010904//EN"
 "http://www.w3.org/TR/2001/REC-SVG-20010904/DTD/svg10.dtd">
<svg version="1.0" xmlns="http://www.w3.org/2000/svg"
 width="512.000000pt" height="512.000000pt" viewBox="0 0 512.000000 512.000000"
 preserveAspectRatio="xMidYMid meet">
<metadata>
Created by potrace 1.14, written by Peter Selinger 2001-2017
</metadata>
<g transform="translate(0.000000,512.000000) scale(0.100000,-0.100000)"
fill="#000000" stroke="none">
<path d="M3977 5034 c-1 -1 -40 -5 -87 -8 -119 -10 -296 -41 -419 -73 l-104
-27 -52 -70 c-70 -96 -131 -200 -192 -326 -28 -58 -58 -121 -67 -140 -17 -34
-17 -33 -11 85 6 120 9 160 20 213 17 79 17 98 1 112 -15 11 -25 10 -74 -10
-185 -75 -514 -259 -710 -398 -89 -64 -106 -80 -131 -130 -55 -110 -118 -332
-136 -487 -4 -33 -9 -68 -11 -78 -2 -10 -4 -40 -5 -68 -2 -27 -6 -46 -9 -42
-8 9 -57 183 -64 228 -3 17 -7 44 -10 60 -3 17 -8 59 -11 95 -4 44 -11 69 -22
77 -28 22 -49 4 -345 -287 -151 -149 -195 -198 -222 -250 -48 -92 -100 -255
-121 -380 -3 -19 -10 -60 -15 -90 -8 -49 -22 -174 -23 -208 -1 -26 -14 5 -35
78 -22 75 -28 103 -38 173 -12 77 -19 92 -46 95 -23 3 -40 -15 -140 -145 -309
-400 -518 -711 -608 -908 -168 -365 -214 -778 -120 -1083 12 -39 25 -74 29
-77 4 -2 44 69 89 158 85 168 135 263 206 382 22 39 45 78 51 87 59 102 280
428 350 517 85 107 190 237 194 241 3 3 21 23 40 45 299 353 712 726 1088 980
297 202 714 425 793 425 53 0 89 -55 66 -101 -12 -25 -34 -38 -211 -120 -268
-125 -624 -353 -902 -579 -681 -554 -1242 -1285 -1626 -2120 -106 -230 -221
-623 -203 -695 7 -29 37 -47 86 -52 19 -2 46 -6 60 -8 14 -3 59 -7 100 -11 41
-3 86 -7 100 -10 138 -23 855 -23 1105 0 22 2 74 7 115 10 41 4 89 8 105 11
17 2 57 7 90 10 33 3 71 8 85 10 14 2 43 7 65 10 300 42 399 88 456 212 39 85
30 155 -35 268 -37 62 -41 77 -40 132 1 67 26 117 85 175 54 53 178 99 299
113 85 9 385 16 865 19 264 2 491 6 505 9 14 3 59 8 100 11 41 3 84 8 95 10
11 2 43 7 70 10 28 4 57 9 65 11 8 2 31 6 50 9 57 8 171 46 233 78 76 38 136
94 172 160 26 46 30 64 30 134 0 70 -4 89 -30 140 -42 85 -122 159 -220 205
-78 36 -229 79 -277 79 -34 0 -68 -35 -68 -69 0 -50 27 -69 134 -96 171 -44
257 -99 298 -193 36 -81 4 -165 -85 -216 -45 -26 -142 -61 -192 -69 -16 -3
-70 -12 -120 -21 -49 -8 -121 -18 -160 -22 -38 -3 -86 -8 -105 -10 -19 -3
-275 -7 -568 -9 -678 -5 -802 -11 -940 -46 -171 -44 -292 -134 -355 -266 -28
-59 -32 -79 -32 -148 0 -85 8 -112 62 -208 18 -33 35 -69 37 -83 6 -30 -29
-82 -71 -107 -31 -18 -165 -49 -268 -62 -27 -3 -59 -8 -70 -10 -17 -4 -44 -7
-165 -20 -14 -1 -61 -6 -105 -10 -44 -4 -94 -8 -111 -10 -330 -38 -1296 -13
-1286 33 1 7 5 29 8 50 8 51 86 283 121 362 l30 65 64 2 c72 3 231 23 309 38
14 3 34 7 45 9 369 71 819 266 1172 508 123 84 404 298 496 378 4 3 9 16 12
28 5 30 -15 38 -106 45 -101 8 -212 32 -317 68 -48 16 -88 29 -89 29 -2 0 -3
3 -3 8 0 4 33 7 73 8 78 1 249 12 282 19 11 2 38 6 61 9 108 13 351 82 454
129 71 32 417 390 634 655 47 59 57 77 52 97 -6 22 -12 25 -49 26 -42 0 -58 2
-152 14 -95 13 -213 44 -305 82 -85 34 -89 39 -36 42 24 1 53 3 63 5 10 2 56
7 103 11 47 4 87 8 90 10 3 2 30 6 60 10 116 13 362 69 425 95 11 5 30 11 41
15 12 3 46 40 75 83 52 74 229 351 229 357 0 2 21 38 46 81 99 168 304 588
304 624 0 26 -19 37 -75 44 -27 3 -70 8 -95 11 -25 3 -83 6 -130 7 l-85 1 65
30 c76 34 224 74 313 83 34 4 69 10 77 14 30 16 163 451 149 487 -10 27 -163
72 -294 88 -27 3 -66 9 -85 12 -33 5 -347 12 -353 7z"/>
</g>
</svg>
